mtllib WpnPrimFace01.mtl

v 0.367439 12.705709 2.107038
v 1.449453 12.758204 1.630873
v 0.876592 13.278735 1.831148
v 0.902230 12.176003 1.926475
v -1.449453 12.758204 1.630873
v -0.367439 12.705709 2.107038
v -0.876592 13.278735 1.831148
v -0.902230 12.176003 1.926475

vt -0.936707 0.528237
vt -0.039835 0.521477
vt -0.502717 0.991295
vt -0.502717 0.037509
vt -0.039835 0.521477
vt -0.936707 0.528237
vt -0.502717 0.991295
vt -0.502717 0.037509

vn 0.397639 0.088183 0.913295
vn 0.397639 0.088183 0.913295
vn 0.397639 0.088183 0.913295
vn 0.397639 0.088183 0.913295
vn -0.397638 0.088183 0.913295
vn -0.397638 0.088183 0.913295
vn -0.397638 0.088183 0.913295
vn -0.397638 0.088183 0.913295

g polygon0
s 1
usemtl mat1
f 1/1/1 2/2/2 3/3/3
f 1/1/1 4/4/4 2/2/2
f 5/5/5 6/6/6 7/7/7
f 5/5/5 8/8/8 6/6/6

