mtllib WpnPrimFace10.mtl

v 0.000000 13.782879 1.963652
v 1.254359 13.029079 1.681302
v 1.166653 13.713408 1.454876
v 0.000000 13.102510 2.219966
v -1.254359 13.029079 1.681302
v 0.000000 12.414099 2.286347
v -1.238495 12.342075 1.758004
v -1.108672 11.747559 1.702921
v -1.994498 12.215695 0.824241
v -1.784438 11.630079 0.834357
v 1.238495 12.342075 1.758004
v 1.108672 11.747559 1.702921
v 1.994498 12.215695 0.824241
v 1.784438 11.630079 0.834357
v 1.255504 10.989206 0.729459
v 0.770091 11.074674 1.341530
v 0.000000 11.807548 2.143140
v 0.000000 11.113396 1.625115
v -0.770091 11.074674 1.341530
v 1.887684 13.594738 0.585799
v 2.020166 12.901548 0.739125
v -1.255504 10.989206 0.729459
v -1.166653 13.713408 1.454876
v -1.887684 13.594738 0.585799
v -2.020166 12.901548 0.739125

vt 0.000000 1.158956
vt 0.600000 0.798230
vt 0.560696 1.158956
vt 0.000000 0.798230
vt 0.600000 0.798230
vt 0.000000 0.500000
vt 0.600000 0.500000
vt 0.560696 0.201770
vt 1.000000 0.500000
vt 0.960696 0.201770
vt 0.600000 0.500000
vt 0.560696 0.201770
vt 1.000000 0.500000
vt 0.960696 0.201770
vt 0.876473 -0.100000
vt 0.476473 -0.100000
vt 0.000000 0.201770
vt 0.000000 -0.100000
vt 0.476473 -0.100000
vt 0.960696 1.158956
vt 1.000000 0.798230
vt 0.876473 -0.100000
vt 0.560696 1.158956
vt 0.960696 1.158956
vt 1.000000 0.798230

vn 0.000000 0.357838 0.933784
vn 0.603074 0.195209 0.773431
vn 0.589798 0.320799 0.741098
vn 0.000000 0.226479 0.974016
vn -0.603075 0.195209 0.773430
vn 0.000000 -0.055071 0.998482
vn -0.596585 -0.063186 0.800059
vn -0.550927 -0.387953 0.738899
vn -0.769945 -0.095374 0.630943
vn -0.684373 -0.427936 0.590342
vn 0.596584 -0.063186 0.800059
vn 0.550927 -0.387954 0.738899
vn 0.769945 -0.095374 0.630943
vn 0.684373 -0.427936 0.590342
vn 0.594689 -0.588272 0.547979
vn 0.381673 -0.586828 0.714114
vn 0.000000 -0.480953 0.876746
vn 0.000000 -0.598086 0.801432
vn -0.381672 -0.586828 0.714114
vn 0.759728 0.283092 0.585382
vn 0.776308 0.162928 0.608934
vn -0.594689 -0.588272 0.547979
vn -0.589798 0.320799 0.741098
vn -0.759728 0.283092 0.585382
vn -0.776308 0.162928 0.608934

g polygon0
s 1
usemtl mat1
f 1/1/1 2/2/2 3/3/3
f 1/1/1 4/4/4 2/2/2
f 5/5/5 4/4/4 1/1/1
f 5/5/5 6/6/6 4/4/4
f 7/7/7 6/6/6 5/5/5
f 7/7/7 8/8/8 6/6/6
f 9/9/9 8/8/8 7/7/7
f 9/9/9 10/10/10 8/8/8
f 6/6/6 2/2/2 4/4/4
f 6/6/6 11/11/11 2/2/2
f 12/12/12 11/11/11 6/6/6
f 12/12/12 13/13/13 11/11/11
f 14/14/14 13/13/13 12/12/12
f 12/12/12 15/15/15 14/14/14
f 12/12/12 16/16/16 15/15/15
f 17/17/17 16/16/16 12/12/12
f 17/17/17 18/18/18 16/16/16
f 19/19/19 18/18/18 17/17/17
f 2/2/2 20/20/20 3/3/3
f 2/2/2 21/21/21 20/20/20
f 13/13/13 21/21/21 2/2/2
f 8/8/8 19/19/19 17/17/17
f 8/8/8 22/22/22 19/19/19
f 10/10/10 22/22/22 8/8/8
f 6/6/6 17/17/17 12/12/12
f 6/6/6 8/8/8 17/17/17
f 23/23/23 5/5/5 1/1/1
f 23/23/23 24/24/24 5/5/5
f 25/25/25 5/5/5 24/24/24
f 25/25/25 9/9/9 5/5/5
f 13/13/13 2/2/2 11/11/11
f 7/7/7 5/5/5 9/9/9

