mtllib WpnPrimBeamL.mtl

v 0.000000 -7.807789 -16.593533
v -3.367257 -5.832264 -10.462026
v -3.903894 -6.761746 -16.593533
v 0.000000 -6.734515 -10.462026
v 3.903895 -6.761746 -16.593533
v 3.367258 -5.832264 -10.462026
v 6.761744 -3.903895 -16.593533
v 5.832263 -3.367258 -10.462026
v 7.807791 0.000000 -16.593533
v 6.734517 0.000000 -10.462026
v 6.761744 3.903893 -16.593533
v 5.832263 3.367257 -10.462026
v 3.903896 6.761743 -16.593533
v 3.367259 5.832262 -10.462026
v 0.000002 7.807789 -16.593533
v 0.000001 6.734515 -10.462026
v -3.903893 6.761746 -16.593533
v -3.367256 5.832264 -10.462026
v -6.761744 3.903894 -16.593533
v -5.832263 3.367258 -10.462026
v -7.807787 0.000000 -16.593533
v -6.734514 0.000000 -10.462026
v -6.761744 -3.903893 -16.593533
v -5.832264 -3.367257 -10.462026
v 9.193367 5.307791 -7.801975
v 9.156347 0.000000 -3.081350
v 10.615587 0.000000 -7.801975
v 7.929630 4.578172 -3.081350
v 5.307795 9.193365 -7.801975
v 4.578175 7.929629 -3.081350
v 0.000002 10.615585 -7.801975
v 0.000001 9.156346 -3.081350
v -5.307791 9.193369 -7.801975
v -4.578172 7.929632 -3.081350
v -9.193367 5.307793 -7.801975
v -7.929631 4.578173 -3.081350
v -10.615584 0.000000 -7.801975
v -9.156345 0.000000 -3.081350
v -9.193367 -5.307791 -7.801975
v -7.929632 -4.578172 -3.081350
v -5.307793 -9.193369 -7.801975
v -4.578174 -7.929632 -3.081350
v 0.000000 -10.615585 -7.801975
v 0.000000 -9.156346 -3.081350
v 5.307792 -9.193369 -7.801975
v 4.578173 -7.929632 -3.081350
v 9.193367 -5.307793 -7.801975
v 7.929630 -4.578174 -3.081350
v -3.737452 -2.157818 -32.841244
v -3.722403 0.000000 9.111237
v -4.315636 0.000000 -32.841244
v -3.223698 -1.861202 9.111237
v -2.157819 -3.737453 -32.841244
v -1.861201 -3.223698 9.111237
v 0.000001 -4.315638 -32.841244
v 0.000001 -3.722404 9.111237
v 2.157820 -3.737453 -32.841244
v 1.861203 -3.223698 9.111237
v 3.737453 -2.157819 -32.841244
v 3.223698 -1.861202 9.111237
v 4.315640 0.000000 -32.841244
v 3.722406 0.000000 9.111237
v 3.737453 2.157818 -32.841244
v 3.223698 1.861202 9.111237
v 2.157821 3.737451 -32.841244
v 1.861204 3.223697 9.111237
v 0.000002 4.315638 -32.841244
v 0.000002 3.722404 9.111237
v -2.157817 3.737453 -32.841244
v -1.861201 3.223698 9.111237
v -3.737452 2.157819 -32.841244
v -3.223697 1.861202 9.111237
v -0.000016 0.000000 4.634699
v -0.000006 0.000002 -35.958702
v -4.255295 -4.255280 -28.457426
v 4.255269 4.255283 -28.457426
v 7.188279 7.188292 -0.445647
v 7.379212 7.379217 10.780068
v -0.000009 -0.000002 8.844440
v -7.379240 -7.379222 10.780068
v 0.000004 0.000000 4.634696
v 7.188313 -7.188306 -0.445652
v 4.255299 -4.255285 -28.457426
v 7.379243 -7.379231 10.780061
v 0.000003 0.000000 8.844433
v -7.188310 -7.188291 -0.445647
v 0.000002 0.000000 -35.958702
v -4.255292 4.255287 -28.457426
v -7.188307 7.188308 -0.445652
v -7.379232 7.379233 10.780061

vt 0.730752 1.008158
vt 0.907209 0.127579
vt 0.730752 1.008158
vt 0.907209 0.127579
vt 0.730752 1.008158
vt 0.907209 0.127579
vt 0.730752 1.008158
vt 0.907209 0.127579
vt 0.730752 1.008158
vt 0.907209 0.127579
vt 0.730752 1.008158
vt 0.907209 0.127579
vt 0.730752 1.008158
vt 0.907209 0.127579
vt 0.730752 1.008158
vt 0.907209 0.127579
vt 0.730752 1.008158
vt 0.907209 0.127579
vt 0.730752 1.008158
vt 0.907209 0.127579
vt 0.730752 1.008158
vt 0.907209 0.127579
vt 0.730752 1.008158
vt 0.907209 0.127579
vt 0.821243 1.000000
vt 0.821243 0.000000
vt 0.821243 1.000000
vt 0.821243 0.000000
vt 0.821243 1.000000
vt 0.821243 0.000000
vt 0.821243 1.000000
vt 0.821243 0.000000
vt 0.821243 1.000000
vt 0.821243 0.000000
vt 0.821243 1.000000
vt 0.821243 0.000000
vt 0.821243 1.000000
vt 0.821243 0.000000
vt 0.821243 1.000000
vt 0.821243 0.000000
vt 0.821243 1.000000
vt 0.821243 0.000000
vt 0.821243 1.000000
vt 0.821243 0.000000
vt 0.821243 1.000000
vt 0.821243 0.000000
vt 0.821243 1.000000
vt 0.821243 0.000000
vt -0.018317 0.613538
vt 0.445791 -0.158500
vt -0.018317 0.613538
vt 0.445791 -0.158500
vt -0.018317 0.613538
vt 0.445791 -0.158500
vt -0.018317 0.613538
vt 0.445791 -0.158500
vt -0.018317 0.613538
vt 0.445791 -0.158500
vt -0.018317 0.613538
vt 0.445791 -0.158500
vt -0.018317 0.613538
vt 0.445791 -0.158500
vt -0.018317 0.613538
vt 0.445791 -0.158500
vt -0.018317 0.613538
vt 0.445791 -0.158500
vt -0.018317 0.613538
vt 0.445791 -0.158500
vt -0.018317 0.613538
vt 0.445791 -0.158500
vt -0.018317 0.613538
vt 0.445791 -0.158500
vt 0.500000 0.498327
vt 0.500000 1.000000
vt 1.000000 1.000000
vt 0.000000 1.000000
vt 0.000000 0.426388
vt 0.000000 0.102052
vt 0.500000 0.000000
vt 1.000000 0.102052
vt 0.500000 0.498327
vt 0.000000 0.426388
vt 0.000000 1.000000
vt 0.000000 0.102052
vt 0.500000 0.000000
vt 1.000000 0.426388
vt 0.500000 1.000000
vt 1.000000 1.000000
vt 1.000000 0.426388
vt 1.000000 0.102052

vn 0.000000 -0.985023 0.172421
vn -0.492512 -0.853055 0.172421
vn -0.492512 -0.853055 0.172421
vn 0.000000 -0.985023 0.172421
vn 0.492512 -0.853055 0.172421
vn 0.492512 -0.853055 0.172421
vn 0.853055 -0.492512 0.172421
vn 0.853055 -0.492512 0.172421
vn 0.985023 0.000000 0.172421
vn 0.985023 0.000000 0.172421
vn 0.853055 0.492512 0.172421
vn 0.853055 0.492512 0.172421
vn 0.492512 0.853055 0.172421
vn 0.492512 0.853055 0.172421
vn 0.000000 0.985023 0.172421
vn 0.000000 0.985023 0.172421
vn -0.492511 0.853055 0.172421
vn -0.492511 0.853055 0.172421
vn -0.853056 0.492511 0.172421
vn -0.853056 0.492511 0.172421
vn -0.985023 0.000000 0.172421
vn -0.985023 0.000000 0.172421
vn -0.853056 -0.492511 0.172421
vn -0.853056 -0.492511 0.172421
vn 0.827396 0.477697 0.295331
vn 0.955395 0.000000 0.295331
vn 0.955395 0.000000 0.295331
vn 0.827396 0.477697 0.295331
vn 0.477698 0.827396 0.295331
vn 0.477698 0.827396 0.295331
vn 0.000000 0.955395 0.295331
vn 0.000000 0.955395 0.295331
vn -0.477697 0.827396 0.295331
vn -0.477697 0.827396 0.295331
vn -0.827396 0.477697 0.295331
vn -0.827396 0.477697 0.295331
vn -0.955395 0.000000 0.295331
vn -0.955395 0.000000 0.295331
vn -0.827397 -0.477697 0.295331
vn -0.827397 -0.477697 0.295331
vn -0.477697 -0.827396 0.295331
vn -0.477697 -0.827396 0.295331
vn 0.000000 -0.955395 0.295331
vn 0.000000 -0.955395 0.295331
vn 0.477697 -0.827396 0.295331
vn 0.477697 -0.827396 0.295331
vn 0.827396 -0.477697 0.295331
vn 0.827396 -0.477697 0.295331
vn -0.865939 -0.499949 0.014139
vn -0.999900 0.000000 0.014139
vn -0.999900 0.000000 0.014139
vn -0.865939 -0.499949 0.014139
vn -0.499950 -0.865939 0.014139
vn -0.499950 -0.865939 0.014139
vn 0.000000 -0.999900 0.014139
vn 0.000000 -0.999900 0.014139
vn 0.499950 -0.865939 0.014139
vn 0.499950 -0.865939 0.014139
vn 0.865939 -0.499950 0.014139
vn 0.865939 -0.499950 0.014139
vn 0.999900 0.000000 0.014139
vn 0.999900 0.000000 0.014139
vn 0.865939 0.499950 0.014139
vn 0.865939 0.499950 0.014139
vn 0.499950 0.865939 0.014139
vn 0.499950 0.865939 0.014139
vn 0.000000 0.999900 0.014139
vn 0.000000 0.999900 0.014139
vn -0.499950 0.865939 0.014139
vn -0.499950 0.865939 0.014139
vn -0.865939 0.499950 0.014139
vn -0.865939 0.499950 0.014139
vn -0.707106 0.707107 0.000000
vn -0.707106 0.707107 0.000000
vn -0.707106 0.707107 0.000000
vn -0.707106 0.707107 0.000000
vn -0.707106 0.707107 0.000000
vn -0.707106 0.707107 0.000000
vn -0.707106 0.707107 0.000000
vn -0.707106 0.707107 0.000000
vn 0.707107 0.707107 0.000000
vn 0.707107 0.707107 0.000000
vn 0.707107 0.707107 0.000000
vn 0.707107 0.707107 0.000000
vn 0.707107 0.707107 0.000000
vn -0.707106 0.707107 0.000000
vn 0.707107 0.707107 0.000000
vn 0.707107 0.707107 0.000000
vn 0.707107 0.707107 0.000000
vn 0.707107 0.707107 0.000000

g polygon0
s 1
usemtl mat1
f 1/1/1 2/2/2 3/3/3
f 1/1/1 4/4/4 2/2/2
f 5/5/5 4/4/4 1/1/1
f 5/5/5 6/6/6 4/4/4
f 7/7/7 6/6/6 5/5/5
f 7/7/7 8/8/8 6/6/6
f 9/9/9 8/8/8 7/7/7
f 9/9/9 10/10/10 8/8/8
f 11/11/11 10/10/10 9/9/9
f 11/11/11 12/12/12 10/10/10
f 13/13/13 12/12/12 11/11/11
f 13/13/13 14/14/14 12/12/12
f 15/15/15 14/14/14 13/13/13
f 15/15/15 16/16/16 14/14/14
f 17/17/17 16/16/16 15/15/15
f 17/17/17 18/18/18 16/16/16
f 19/19/19 18/18/18 17/17/17
f 19/19/19 20/20/20 18/18/18
f 21/21/21 20/20/20 19/19/19
f 21/21/21 22/22/22 20/20/20
f 23/23/23 22/22/22 21/21/21
f 23/23/23 24/24/24 22/22/22
f 3/3/3 24/24/24 23/23/23
f 3/3/3 2/2/2 24/24/24
f 25/25/25 26/26/26 27/27/27
f 25/25/25 28/28/28 26/26/26
f 29/29/29 28/28/28 25/25/25
f 29/29/29 30/30/30 28/28/28
f 31/31/31 30/30/30 29/29/29
f 31/31/31 32/32/32 30/30/30
f 33/33/33 32/32/32 31/31/31
f 33/33/33 34/34/34 32/32/32
f 35/35/35 34/34/34 33/33/33
f 35/35/35 36/36/36 34/34/34
f 37/37/37 36/36/36 35/35/35
f 37/37/37 38/38/38 36/36/36
f 39/39/39 38/38/38 37/37/37
f 39/39/39 40/40/40 38/38/38
f 41/41/41 40/40/40 39/39/39
f 41/41/41 42/42/42 40/40/40
f 43/43/43 42/42/42 41/41/41
f 43/43/43 44/44/44 42/42/42
f 45/45/45 44/44/44 43/43/43
f 45/45/45 46/46/46 44/44/44
f 47/47/47 46/46/46 45/45/45
f 47/47/47 48/48/48 46/46/46
f 27/27/27 48/48/48 47/47/47
f 27/27/27 26/26/26 48/48/48
f 49/49/49 50/50/50 51/51/51
f 49/49/49 52/52/52 50/50/50
f 53/53/53 52/52/52 49/49/49
f 53/53/53 54/54/54 52/52/52
f 55/55/55 54/54/54 53/53/53
f 55/55/55 56/56/56 54/54/54
f 57/57/57 56/56/56 55/55/55
f 57/57/57 58/58/58 56/56/56
f 59/59/59 58/58/58 57/57/57
f 59/59/59 60/60/60 58/58/58
f 61/61/61 60/60/60 59/59/59
f 61/61/61 62/62/62 60/60/60
f 63/63/63 62/62/62 61/61/61
f 63/63/63 64/64/64 62/62/62
f 65/65/65 64/64/64 63/63/63
f 65/65/65 66/66/66 64/64/64
f 67/67/67 66/66/66 65/65/65
f 67/67/67 68/68/68 66/66/66
f 69/69/69 68/68/68 67/67/67
f 69/69/69 70/70/70 68/68/68
f 71/71/71 70/70/70 69/69/69
f 71/71/71 72/72/72 70/70/70
f 51/51/51 72/72/72 71/71/71
f 51/51/51 50/50/50 72/72/72
f 73/73/73 74/74/74 75/75/75
f 73/73/73 76/76/76 74/74/74
f 77/77/77 76/76/76 73/73/73
f 73/73/73 78/78/78 77/77/77
f 73/73/73 79/79/79 78/78/78
f 80/80/80 79/79/79 73/73/73
f 81/81/81 82/82/82 83/83/83
f 81/81/81 84/84/84 82/82/82
f 85/85/85 84/84/84 81/81/81
f 86/86/86 73/73/73 75/75/75
f 86/86/86 80/80/80 73/73/73
f 87/87/87 81/81/81 83/83/83
f 87/87/87 88/88/88 81/81/81
f 89/89/89 81/81/81 88/88/88
f 89/89/89 90/90/90 81/81/81
f 85/85/85 81/81/81 90/90/90

