mtllib WpnPrimBeamS.mtl

v -1.166743 1.166741 5.500000
v 1.166738 -1.166740 -6.500000
v -1.166742 1.166740 -6.500000
v 1.166740 -1.166739 5.500000
v -1.166743 -1.166742 5.500000
v 1.166744 1.166743 -6.500000
v -1.166743 -1.166742 -6.500000
v 1.166744 1.166743 5.500000

vt 1.000000 0.000000
vt 0.000000 1.000000
vt 1.000000 1.000000
vt 0.000000 0.000000
vt 1.000000 0.000000
vt 0.000000 1.000000
vt 1.000000 1.000000
vt 0.000000 0.000000

vn 0.707107 0.707107 0.000000
vn 0.707107 0.707107 0.000000
vn 0.707107 0.707107 0.000000
vn 0.707107 0.707107 0.000000
vn -0.707107 0.707107 0.000000
vn -0.707107 0.707107 0.000000
vn -0.707107 0.707107 0.000000
vn -0.707107 0.707107 0.000000

g polygon0
s 1
usemtl mat1
f 1/1/1 2/2/2 3/3/3
f 1/1/1 4/4/4 2/2/2
f 5/5/5 6/6/6 7/7/7
f 5/5/5 8/8/8 6/6/6

