mtllib eff_enem_MA_e063_Wind_SwordAttackAirN_M.mtl

v 1.051051 10.278222 0.950961
v -2.226440 31.704212 24.226736
v -1.742963 21.245155 29.927876
v -2.042321 40.007362 14.567423
v 1.041605 10.519338 0.514774
v 1.048625 10.508642 -0.177554
v -1.858207 42.619713 1.917099
v -1.840574 40.863922 -9.711218
v 1.078904 10.367573 -0.691301
v 1.105783 9.866684 -1.152162
v 1.039261 9.324938 1.739030
v -2.073503 4.939342 32.412205
v -7.971520 -4.582471 26.009562
v -1.451754 12.819181 32.347092
v 1.098425 8.845913 -1.344373
v -1.828585 20.563889 -30.302603
v -1.822945 33.809608 -22.447105
v -2.810383 9.941411 -32.808441
v -5.787897 1.055891 -31.371569
v 0.526607 8.599977 0.984623
v -17.276617 -7.118301 6.965465
v -20.683701 -0.767097 0.317134
v 0.632246 8.512523 1.207495
v -13.869534 -10.062831 14.214243
v 0.737885 8.623972 1.430365
v -16.589647 -17.993965 -8.057138
v 0.323263 7.837790 -0.148102
v 0.338309 7.870733 0.004283
v -15.785876 -16.601793 -12.907451
v 1.059475 9.801579 1.345916
v 0.631760 8.109544 -1.054392
v 0.451119 7.910439 -0.731171
v -9.499541 -7.475390 -27.044876
v 0.338715 7.845497 -0.419342
v -13.320578 -13.089265 -20.307384

vt 1.000000 0.721037
vt 0.000000 0.721037
vt 0.000000 0.765954
vt 0.000000 0.676121
vt 1.000000 0.676121
vt 1.000000 0.631205
vt 0.000000 0.631205
vt 0.000000 0.586289
vt 1.000000 0.586289
vt 1.000000 0.541373
vt 1.000000 0.810869
vt 0.000000 0.810870
vt 0.000000 0.855786
vt 0.000000 0.788412
vt 1.000000 0.451540
vt 0.000000 0.451541
vt 0.000000 0.541373
vt 0.000000 0.404958
vt 0.000000 0.339712
vt 1.000000 0.990534
vt 0.000000 0.945618
vt 0.000000 0.990534
vt 1.000000 0.945618
vt 0.000000 0.900702
vt 1.000000 0.900702
vt 0.000000 0.078730
vt 1.000000 0.143976
vt 1.000000 0.078730
vt 0.000000 0.143976
vt 1.000000 0.765953
vt 1.000000 0.339712
vt 1.000000 0.274467
vt 0.000000 0.274467
vt 1.000000 0.209221
vt 0.000000 0.209221

vn 0.994697 0.075002 0.070374
vn 0.994697 0.075002 0.070374
vn 0.994697 0.075002 0.070374
vn 0.995455 0.078757 0.053547
vn 0.995455 0.078757 0.053547
vn 0.995880 0.090058 0.010583
vn 0.995880 0.090058 0.010583
vn 0.995836 0.087032 -0.027130
vn 0.995836 0.087032 -0.027130
vn 0.995900 0.064323 -0.063613
vn 0.979924 -0.189474 0.062037
vn 0.949062 -0.310477 0.053724
vn 0.807836 -0.588529 -0.032163
vn 0.996504 -0.011767 0.082710
vn 0.985863 -0.125086 -0.111479
vn 0.994502 -0.007970 -0.104409
vn 0.995900 0.064323 -0.063613
vn 0.969704 -0.210203 -0.124452
vn 0.911463 -0.398523 -0.102054
vn 0.385736 -0.675865 -0.628024
vn 0.413540 -0.693039 -0.590493
vn 0.293279 -0.611733 -0.734691
vn 0.589263 -0.719076 -0.368373
vn 0.688166 -0.691310 -0.220269
vn 0.795811 -0.604390 -0.037381
vn 0.835110 -0.549983 0.010478
vn 0.835110 -0.549983 0.010478
vn 0.830640 -0.555506 0.038076
vn 0.835274 -0.549832 -0.001587
vn 0.994697 0.075002 0.070374
vn 0.911463 -0.398523 -0.102054
vn 0.864434 -0.501560 -0.034527
vn 0.864434 -0.501560 -0.034527
vn 0.835110 -0.549983 0.010478
vn 0.835110 -0.549983 0.010478

g polygon0
s 1
usemtl mat1
f 1/1/1 2/2/2 3/3/3
f 1/1/1 4/4/4 2/2/2
f 5/5/5 4/4/4 1/1/1
f 5/5/5 6/6/6 4/4/4
f 6/6/6 7/7/7 4/4/4
f 6/6/6 8/8/8 7/7/7
f 9/9/9 8/8/8 6/6/6
f 9/9/9 10/10/10 8/8/8
f 11/11/11 12/12/12 13/13/13
f 11/11/11 14/14/14 12/12/12
f 3/3/3 14/14/14 11/11/11
f 15/15/15 16/16/16 17/17/17
f 15/15/15 18/18/18 16/16/16
f 19/19/19 18/18/18 15/15/15
f 20/20/20 21/21/21 22/22/22
f 20/20/20 23/23/23 21/21/21
f 23/23/23 24/24/24 21/21/21
f 23/23/23 25/25/25 24/24/24
f 25/25/25 13/13/13 24/24/24
f 25/25/25 11/11/11 13/13/13
f 26/26/26 27/27/27 28/28/28
f 26/26/26 29/29/29 27/27/27
f 30/30/30 3/3/3 11/11/11
f 30/30/30 1/1/1 3/3/3
f 10/10/10 17/17/17 8/8/8
f 10/10/10 15/15/15 17/17/17
f 31/31/31 19/19/19 15/15/15
f 31/31/31 32/32/32 19/19/19
f 32/32/32 33/33/33 19/19/19
f 32/32/32 34/34/34 33/33/33
f 34/34/34 35/35/35 33/33/33
f 34/34/34 27/27/27 35/35/35
f 27/27/27 29/29/29 35/35/35

