mtllib WpnPrimBeamsword.mtl

v 0.000000 0.448486 -0.533691
v -0.262695 0.896729 -0.151611
v 0.000000 0.896729 -0.303223
v -0.462158 0.448486 0.000000
v 0.262695 0.896729 -0.151611
v 0.000000 0.448486 -0.533691
v 0.000000 0.896729 -0.303223
v 0.462158 0.448486 0.000000
v 0.000000 0.448486 0.533691
v 0.262695 0.896729 0.151611
v 0.000000 0.896729 0.303223
v 0.462158 0.448486 0.000000
v -0.262695 0.896729 0.151611
v 0.000000 0.448486 0.533691
v 0.000000 0.896729 0.303223
v -0.462158 0.448486 0.000000
v 0.000000 3.362793 -0.358643
v 0.304688 4.311768 -0.176025
v 0.310547 3.362793 -0.179199
v 0.000000 4.311768 -0.352051
v 0.310547 3.362793 -0.179199
v 0.304688 4.311768 0.176025
v 0.310547 3.362793 0.179199
v 0.304688 4.311768 -0.176025
v 0.310547 3.362793 0.179199
v 0.000000 4.311768 0.352051
v 0.000000 3.362793 0.358643
v 0.304688 4.311768 0.176025
v 0.000000 3.362793 0.358643
v -0.304688 4.311768 0.176025
v -0.310547 3.362793 0.179199
v 0.000000 4.311768 0.352051
v -0.310547 3.362793 0.179199
v -0.304688 4.311768 -0.176025
v -0.310547 3.362793 -0.179199
v -0.304688 4.311768 0.176025
v -0.310547 3.362793 -0.179199
v 0.000000 4.311768 -0.352051
v 0.000000 3.362793 -0.358643
v -0.304688 4.311768 -0.176025
v -0.262695 0.896729 -0.151611
v 0.000000 3.362793 -0.358643
v 0.000000 0.896729 -0.303223
v -0.310547 3.362793 -0.179199
v 0.000000 0.896729 -0.303223
v 0.310547 3.362793 -0.179199
v 0.262695 0.896729 -0.151611
v 0.000000 3.362793 -0.358643
v 0.262695 0.896729 -0.151611
v 0.310547 3.362793 0.179199
v 0.262695 0.896729 0.151611
v 0.310547 3.362793 -0.179199
v 0.262695 0.896729 0.151611
v 0.000000 3.362793 0.358643
v 0.000000 0.896729 0.303223
v 0.310547 3.362793 0.179199
v 0.000000 0.896729 0.303223
v -0.310547 3.362793 0.179199
v -0.262695 0.896729 0.151611
v 0.000000 3.362793 0.358643
v -0.262695 0.896729 0.151611
v -0.310547 3.362793 -0.179199
v -0.262695 0.896729 -0.151611
v -0.310547 3.362793 0.179199
v -0.608643 4.300049 -0.351318
v 0.000000 5.000000 -0.772949
v 0.000000 4.300049 -0.702637
v -0.669434 5.000000 -0.386475
v 0.000000 4.300049 -0.702637
v 0.669434 5.000000 -0.386475
v 0.608643 4.300049 -0.351318
v 0.000000 5.000000 -0.772949
v 0.608643 4.300049 -0.351318
v 0.669434 5.000000 0.386475
v 0.608643 4.300049 0.351318
v 0.669434 5.000000 -0.386475
v 0.608643 4.300049 0.351318
v 0.000000 5.000000 0.772949
v 0.000000 4.300049 0.702637
v 0.669434 5.000000 0.386475
v 0.000000 4.300049 0.702637
v -0.669434 5.000000 0.386475
v -0.608643 4.300049 0.351318
v 0.000000 5.000000 0.772949
v -0.608643 4.300049 0.351318
v -0.669434 5.000000 -0.386475
v -0.608643 4.300049 -0.351318
v -0.669434 5.000000 0.386475
v 0.000000 4.300049 -0.702637
v -0.608643 4.300049 0.351318
v -0.608643 4.300049 -0.351318
v 0.608643 4.300049 -0.351318
v 0.608643 4.300049 0.351318
v 0.000000 4.300049 0.702637
v 0.462158 0.448486 0.000000
v 0.262695 0.896729 -0.151611
v 0.262695 0.896729 0.151611
v -0.462158 0.448486 0.000000
v -0.262695 0.896729 0.151611
v -0.262695 0.896729 -0.151611
v 0.000000 0.000000 0.000000
v -0.462158 0.448486 0.000000
v 0.000000 0.448486 -0.533691
v 0.000000 0.000000 0.000000
v 0.000000 0.448486 -0.533691
v 0.462158 0.448486 0.000000
v 0.000000 0.000000 0.000000
v 0.462158 0.448486 0.000000
v 0.000000 0.448486 0.533691
v 0.000000 0.000000 0.000000
v 0.000000 0.448486 0.533691
v -0.462158 0.448486 0.000000

vt 0.977783 0.200012
vt 0.843842 0.399994
vt 0.977783 0.399994
vt 0.750031 0.200012
vt 0.843842 0.399994
vt 0.977783 0.200012
vt 0.977783 0.399994
vt 0.750031 0.200012
vt 0.522247 0.200012
vt 0.656219 0.399994
vt 0.522247 0.399994
vt 0.750031 0.200012
vt 0.656219 0.399994
vt 0.522247 0.200012
vt 0.522247 0.399994
vt 0.750031 0.200012
vt 0.977783 0.740479
vt 0.843842 1.000000
vt 0.843842 0.740479
vt 0.977783 1.000000
vt 0.843842 0.740479
vt 0.656219 1.000000
vt 0.656219 0.740479
vt 0.843842 1.000000
vt 0.656219 0.740479
vt 0.522247 1.000000
vt 0.522247 0.740479
vt 0.656219 1.000000
vt 0.522247 0.740479
vt 0.656219 1.000000
vt 0.656219 0.740479
vt 0.522247 1.000000
vt 0.656219 0.740479
vt 0.843842 1.000000
vt 0.843842 0.740479
vt 0.656219 1.000000
vt 0.843842 0.740479
vt 0.977783 1.000000
vt 0.977783 0.740479
vt 0.843842 1.000000
vt 0.843842 0.399994
vt 0.977783 0.740479
vt 0.977783 0.399994
vt 0.843842 0.740479
vt 0.977783 0.399994
vt 0.843842 0.740479
vt 0.843842 0.399994
vt 0.977783 0.740479
vt 0.843842 0.399994
vt 0.656219 0.740479
vt 0.656219 0.399994
vt 0.843842 0.740479
vt 0.656219 0.399994
vt 0.522247 0.740479
vt 0.522247 0.399994
vt 0.656219 0.740479
vt 0.522247 0.399994
vt 0.656219 0.740479
vt 0.656219 0.399994
vt 0.522247 0.740479
vt 0.656219 0.399994
vt 0.843842 0.740479
vt 0.843842 0.399994
vt 0.656219 0.740479
vt 0.358673 0.373505
vt 0.476196 0.157257
vt 0.476196 0.373505
vt 0.358673 0.157257
vt 0.476196 0.373505
vt 0.358673 0.157257
vt 0.358673 0.373505
vt 0.476196 0.157257
vt 0.358673 0.373505
vt 0.123657 0.157257
vt 0.123657 0.373505
vt 0.358673 0.157257
vt 0.123657 0.373505
vt 0.006134 0.157257
vt 0.006134 0.373505
vt 0.123657 0.157257
vt 0.006134 0.373505
vt 0.123657 0.157257
vt 0.123657 0.373505
vt 0.006134 0.157257
vt 0.123657 0.373505
vt 0.358673 0.157257
vt 0.358673 0.373505
vt 0.123657 0.157257
vt 0.201904 0.082031
vt 0.290070 0.132935
vt 0.231293 0.132935
vt 0.231293 0.031128
vt 0.290070 0.031128
vt 0.319489 0.082031
vt 0.750031 0.200012
vt 0.843842 0.399994
vt 0.656219 0.399994
vt 0.750031 0.200012
vt 0.656219 0.399994
vt 0.843842 0.399994
vt 0.750031 0.000000
vt 0.750031 0.200012
vt 0.977783 0.200012
vt 0.750031 0.000000
vt 0.977783 0.200012
vt 0.750031 0.200012
vt 0.750031 0.000000
vt 0.750031 0.200012
vt 0.522247 0.200012
vt 0.750031 0.000000
vt 0.522247 0.200012
vt 0.750031 0.200012

vn -0.618908 0.266912 -0.738722
vn -0.618908 0.266912 -0.738722
vn -0.456801 0.406568 -0.791224
vn -0.750966 0.114256 -0.650381
vn 0.618908 0.266912 -0.738722
vn 0.618908 0.266912 -0.738722
vn 0.456801 0.406568 -0.791224
vn 0.750966 0.114256 -0.650381
vn 0.618908 0.266912 0.738722
vn 0.618908 0.266912 0.738722
vn 0.456801 0.406568 0.791224
vn 0.750966 0.114256 0.650381
vn -0.618908 0.266912 0.738722
vn -0.618908 0.266912 0.738722
vn -0.456801 0.406568 0.791224
vn -0.750966 0.114256 0.650381
vn 0.499990 0.006042 -0.866010
vn 0.499990 0.006042 -0.866010
vn 0.499990 0.006042 -0.866010
vn 0.499990 0.006042 -0.866010
vn 0.999982 0.006042 0.000000
vn 0.999982 0.006042 0.000000
vn 0.999982 0.006042 0.000000
vn 0.999982 0.006042 0.000000
vn 0.499990 0.006042 0.866010
vn 0.499990 0.006042 0.866010
vn 0.499990 0.006042 0.866010
vn 0.499990 0.006042 0.866010
vn -0.499990 0.006042 0.866010
vn -0.499990 0.006042 0.866010
vn -0.499990 0.006042 0.866010
vn -0.499990 0.006042 0.866010
vn -0.999982 0.006042 0.000000
vn -0.999982 0.006042 0.000000
vn -0.999982 0.006042 0.000000
vn -0.999982 0.006042 0.000000
vn -0.499990 0.006042 -0.866010
vn -0.499990 0.006042 -0.866010
vn -0.499990 0.006042 -0.866010
vn -0.499990 0.006042 -0.866010
vn -0.499893 -0.019410 -0.865870
vn -0.499893 -0.019410 -0.865870
vn -0.499893 -0.019410 -0.865870
vn -0.499893 -0.019410 -0.865870
vn 0.499893 -0.019410 -0.865870
vn 0.499893 -0.019410 -0.865870
vn 0.499893 -0.019410 -0.865870
vn 0.499893 -0.019410 -0.865870
vn 0.999812 -0.019409 0.000000
vn 0.999812 -0.019409 0.000000
vn 0.999812 -0.019409 0.000000
vn 0.999812 -0.019409 0.000000
vn 0.499893 -0.019410 0.865870
vn 0.499893 -0.019410 0.865870
vn 0.499893 -0.019410 0.865870
vn 0.499893 -0.019410 0.865870
vn -0.499893 -0.019410 0.865870
vn -0.499893 -0.019410 0.865870
vn -0.499893 -0.019410 0.865870
vn -0.499893 -0.019410 0.865870
vn -0.999812 -0.019409 0.000000
vn -0.999812 -0.019409 0.000000
vn -0.999812 -0.019409 0.000000
vn -0.999812 -0.019409 0.000000
vn -0.498102 -0.086608 -0.862782
vn -0.498102 -0.086608 -0.862782
vn -0.498102 -0.086608 -0.862782
vn -0.498102 -0.086608 -0.862782
vn 0.498102 -0.086608 -0.862782
vn 0.498102 -0.086608 -0.862782
vn 0.498102 -0.086608 -0.862782
vn 0.498102 -0.086608 -0.862782
vn 0.996242 -0.086611 0.000000
vn 0.996242 -0.086611 0.000000
vn 0.996242 -0.086611 0.000000
vn 0.996242 -0.086611 0.000000
vn 0.498102 -0.086608 0.862782
vn 0.498102 -0.086608 0.862782
vn 0.498102 -0.086608 0.862782
vn 0.498102 -0.086608 0.862782
vn -0.498102 -0.086608 0.862782
vn -0.498102 -0.086608 0.862782
vn -0.498102 -0.086608 0.862782
vn -0.498102 -0.086608 0.862782
vn -0.996242 -0.086611 0.000000
vn -0.996242 -0.086611 0.000000
vn -0.996242 -0.086611 0.000000
vn -0.996242 -0.086611 0.000000
vn 0.000000 -1.000000 0.000000
vn 0.000000 -1.000000 0.000000
vn 0.000000 -1.000000 0.000000
vn 0.000000 -1.000000 0.000000
vn 0.000000 -1.000000 0.000000
vn 0.000000 -1.000000 0.000000
vn 0.913628 0.406552 0.000000
vn 0.913628 0.406552 0.000000
vn 0.913628 0.406552 0.000000
vn -0.913628 0.406552 0.000000
vn -0.913628 0.406552 0.000000
vn -0.913628 0.406552 0.000000
vn -0.596301 -0.614612 -0.516408
vn -0.596301 -0.614612 -0.516408
vn -0.596301 -0.614612 -0.516408
vn 0.596301 -0.614612 -0.516408
vn 0.596301 -0.614612 -0.516408
vn 0.596301 -0.614612 -0.516408
vn 0.596301 -0.614612 0.516408
vn 0.596301 -0.614612 0.516408
vn 0.596301 -0.614612 0.516408
vn -0.596301 -0.614612 0.516408
vn -0.596301 -0.614612 0.516408
vn -0.596301 -0.614612 0.516408

g polygon0
s 1
usemtl mat2
f 1/1/1 2/2/2 3/3/3
f 1/1/1 4/4/4 2/2/2
f 5/5/5 6/6/6 7/7/7
f 5/5/5 8/8/8 6/6/6
f 9/9/9 10/10/10 11/11/11
f 9/9/9 12/12/12 10/10/10
f 13/13/13 14/14/14 15/15/15
f 13/13/13 16/16/16 14/14/14
f 17/17/17 18/18/18 19/19/19
f 17/17/17 20/20/20 18/18/18
f 21/21/21 22/22/22 23/23/23
f 21/21/21 24/24/24 22/22/22
f 25/25/25 26/26/26 27/27/27
f 25/25/25 28/28/28 26/26/26
f 29/29/29 30/30/30 31/31/31
f 29/29/29 32/32/32 30/30/30
f 33/33/33 34/34/34 35/35/35
f 33/33/33 36/36/36 34/34/34
f 37/37/37 38/38/38 39/39/39
f 37/37/37 40/40/40 38/38/38
f 41/41/41 42/42/42 43/43/43
f 41/41/41 44/44/44 42/42/42
f 45/45/45 46/46/46 47/47/47
f 45/45/45 48/48/48 46/46/46
f 49/49/49 50/50/50 51/51/51
f 49/49/49 52/52/52 50/50/50
f 53/53/53 54/54/54 55/55/55
f 53/53/53 56/56/56 54/54/54
f 57/57/57 58/58/58 59/59/59
f 57/57/57 60/60/60 58/58/58
f 61/61/61 62/62/62 63/63/63
f 61/61/61 64/64/64 62/62/62
f 65/65/65 66/66/66 67/67/67
f 65/65/65 68/68/68 66/66/66
f 69/69/69 70/70/70 71/71/71
f 69/69/69 72/72/72 70/70/70
f 73/73/73 74/74/74 75/75/75
f 73/73/73 76/76/76 74/74/74
f 77/77/77 78/78/78 79/79/79
f 77/77/77 80/80/80 78/78/78
f 81/81/81 82/82/82 83/83/83
f 81/81/81 84/84/84 82/82/82
f 85/85/85 86/86/86 87/87/87
f 85/85/85 88/88/88 86/86/86
f 89/89/89 90/90/90 91/91/91
f 89/89/89 92/92/92 90/90/90
f 93/93/93 90/90/90 92/92/92
f 93/93/93 94/94/94 90/90/90
f 95/95/95 96/96/96 97/97/97
f 98/98/98 99/99/99 100/100/100
f 101/101/101 102/102/102 103/103/103
f 104/104/104 105/105/105 106/106/106
f 107/107/107 108/108/108 109/109/109
f 110/110/110 111/111/111 112/112/112

v 0.000000 5.000000 0.000000
v 0.669434 5.000000 0.386475
v 0.669434 5.000000 -0.386475
v 0.000000 5.000000 0.772949
v -0.669434 5.000000 0.386475
v 0.000000 5.000000 -0.772949
v -0.669434 5.000000 -0.386475

vt 0.242188 0.953125
vt 0.492188 0.503906
vt 0.007813 0.503906
vt 0.007813 0.503906
vt 0.492188 0.503906
vt 0.492188 0.503906
vt 0.007813 0.503906

vn 0.000000 1.000000 0.000000
vn 0.000000 1.000000 0.000000
vn 0.000000 1.000000 0.000000
vn 0.000000 1.000000 0.000000
vn 0.000000 1.000000 0.000000
vn 0.000000 1.000000 0.000000
vn 0.000000 1.000000 0.000000

g polygon1
s 1
usemtl mat3
f 113/113/113 114/114/114 115/115/115
f 113/113/113 116/116/116 114/114/114
f 117/117/117 116/116/116 113/113/113
f 118/118/118 113/113/113 115/115/115
f 118/118/118 119/119/119 113/113/113
f 113/113/113 119/119/119 117/117/117

v 2.006836 5.977539 2.006836
v 1.871094 4.129883 1.871094
v 3.970703 5.386719 3.970703
v 0.000000 5.657227 0.000000
v 2.006836 11.359375 2.006836
v 0.000000 15.538086 0.000000
v 2.006836 14.006836 2.006836
v 1.833984 15.538086 1.833984
v 5.589844 15.538086 5.589844
v 4.400391 18.132813 4.400391
v 0.000000 20.476563 0.000000
v 0.779297 17.521484 0.779297
v 2.401367 19.892578 2.401367
v 0.000000 17.786133 0.000000
v -0.779297 17.521484 -0.779297
v -1.458984 16.775391 -1.458984
v -1.833984 15.538086 -1.833984
v -4.400391 18.132813 -4.400391
v -5.589844 15.538086 -5.589844
v 2.006836 5.977539 -2.006836
v 1.871094 4.129883 -1.871094
v 3.970703 5.386719 -3.970703
v 0.000000 5.657227 0.000000
v 2.006836 11.359375 -2.006836
v 0.000000 15.538086 0.000000
v 2.006836 14.006836 -2.006836
v 1.833984 15.538086 -1.833984
v 5.589844 15.538086 -5.589844
v 4.400391 18.132813 -4.400391
v 0.000000 20.476563 0.000000
v 0.779297 17.521484 -0.779297
v 2.401367 19.892578 -2.401367
v 0.000000 17.786133 0.000000
v -0.779297 17.521484 0.779297
v -1.458984 16.775391 1.458984
v -1.833984 15.538086 1.833984
v -4.400391 18.132813 4.400391
v -5.589844 15.538086 5.589844
v 5.593750 7.180664 5.593750
v 6.020508 12.476563 6.020508
v 0.000000 3.638672 0.000000
v -1.871094 4.129883 -1.871094
v -2.006836 5.977539 -2.006836
v -3.970703 5.386719 -3.970703
v -5.593750 7.180664 -5.593750
v -2.006836 14.006836 -2.006836
v -2.006836 11.359375 -2.006836
v 5.593750 7.180664 -5.593750
v 6.020508 12.476563 -6.020508
v 0.000000 3.638672 0.000000
v -1.871094 4.129883 1.871094
v -2.006836 5.977539 2.006836
v -3.970703 5.386719 3.970703
v -5.593750 7.180664 5.593750
v -2.006836 14.006836 2.006836
v -2.006836 11.359375 2.006836
v 1.458984 16.775391 1.458984
v -6.020508 12.476563 -6.020508
v 1.458984 16.775391 -1.458984
v -6.020508 12.476563 6.020508
v -2.401367 19.892578 -2.401367
v -2.401367 19.892578 2.401367

vt 0.660583 0.179688
vt 0.673706 0.117188
vt 0.673035 0.148438
vt 0.673706 0.179688
vt 0.660583 0.304688
vt 0.673706 0.429688
vt 0.660583 0.335938
vt 0.660583 0.398438
vt 0.685516 0.367188
vt 0.685516 0.492188
vt 0.685516 0.742188
vt 0.660583 0.523438
vt 0.685516 0.617188
vt 0.660583 0.585938
vt 0.660583 0.523438
vt 0.660583 0.460938
vt 0.660583 0.398438
vt 0.685516 0.492188
vt 0.685516 0.367188
vt 0.660583 0.179688
vt 0.673706 0.117188
vt 0.673035 0.148438
vt 0.673706 0.179688
vt 0.660583 0.304688
vt 0.673706 0.429688
vt 0.660583 0.335938
vt 0.660583 0.398438
vt 0.685516 0.367188
vt 0.685516 0.492188
vt 0.685516 0.742188
vt 0.660583 0.523438
vt 0.685516 0.617188
vt 0.660583 0.585938
vt 0.660583 0.523438
vt 0.660583 0.460938
vt 0.660583 0.398438
vt 0.685516 0.492188
vt 0.685516 0.367188
vt 0.685516 0.179688
vt 0.685516 0.242188
vt 0.673706 0.117188
vt 0.673706 0.117188
vt 0.660583 0.179688
vt 0.673035 0.148438
vt 0.685516 0.179688
vt 0.660583 0.335938
vt 0.660583 0.304688
vt 0.685516 0.179688
vt 0.685516 0.242188
vt 0.673706 0.117188
vt 0.673706 0.117188
vt 0.660583 0.179688
vt 0.673035 0.148438
vt 0.685516 0.179688
vt 0.660583 0.335938
vt 0.660583 0.304688
vt 0.660583 0.460938
vt 0.685516 0.242188
vt 0.660583 0.460938
vt 0.685516 0.242188
vt 0.685516 0.617188
vt 0.685516 0.617188

vn -0.707107 0.000000 0.707107
vn -0.707107 0.000000 0.707107
vn -0.707107 0.000000 0.707107
vn -0.707107 0.000000 0.707107
vn -0.707107 0.000000 0.707107
vn -0.707107 0.000000 0.707107
vn -0.707107 0.000000 0.707107
vn -0.707107 0.000000 0.707107
vn -0.707107 0.000000 0.707107
vn -0.707107 0.000000 0.707107
vn -0.707107 0.000000 0.707107
vn -0.707107 0.000000 0.707107
vn -0.707107 0.000000 0.707107
vn -0.707107 0.000000 0.707107
vn -0.707107 0.000000 0.707107
vn -0.707107 0.000000 0.707107
vn -0.707107 0.000000 0.707107
vn -0.707107 0.000000 0.707107
vn -0.707107 0.000000 0.707107
vn 0.707107 0.000000 0.707107
vn 0.707107 0.000000 0.707107
vn 0.707107 0.000000 0.707107
vn 0.707107 0.000000 0.707107
vn 0.707107 0.000000 0.707107
vn 0.707107 0.000000 0.707107
vn 0.707107 0.000000 0.707107
vn 0.707107 0.000000 0.707107
vn 0.707107 0.000000 0.707107
vn 0.707107 0.000000 0.707107
vn 0.707107 0.000000 0.707107
vn 0.707107 0.000000 0.707107
vn 0.707107 0.000000 0.707107
vn 0.707107 0.000000 0.707107
vn 0.707107 0.000000 0.707107
vn 0.707107 0.000000 0.707107
vn 0.707107 0.000000 0.707107
vn 0.707107 0.000000 0.707107
vn 0.707107 0.000000 0.707107
vn -0.707107 0.000000 0.707107
vn -0.707107 0.000000 0.707107
vn -0.707107 0.000000 0.707107
vn -0.707107 0.000000 0.707107
vn -0.707107 0.000000 0.707107
vn -0.707107 0.000000 0.707107
vn -0.707107 0.000000 0.707107
vn -0.707107 0.000000 0.707107
vn -0.707107 0.000000 0.707107
vn 0.707107 0.000000 0.707107
vn 0.707107 0.000000 0.707107
vn 0.707107 0.000000 0.707107
vn 0.707107 0.000000 0.707107
vn 0.707107 0.000000 0.707107
vn 0.707107 0.000000 0.707107
vn 0.707107 0.000000 0.707107
vn 0.707107 0.000000 0.707107
vn 0.707107 0.000000 0.707107
vn -0.707107 0.000000 0.707107
vn -0.707107 0.000000 0.707107
vn 0.707107 0.000000 0.707107
vn 0.707107 0.000000 0.707107
vn -0.707107 0.000000 0.707107
vn 0.707107 0.000000 0.707107

g polygon2
s 1
usemtl mat1
f 120/120/120 121/121/121 122/122/122
f 120/120/120 123/123/123 121/121/121
f 124/124/124 123/123/123 120/120/120
f 124/124/124 125/125/125 123/123/123
f 126/126/126 125/125/125 124/124/124
f 126/126/126 127/127/127 125/125/125
f 128/128/128 127/127/127 126/126/126
f 128/128/128 129/129/129 127/127/127
f 130/130/130 131/131/131 132/132/132
f 130/130/130 133/133/133 131/131/131
f 134/134/134 133/133/133 130/130/130
f 134/134/134 125/125/125 133/133/133
f 135/135/135 125/125/125 134/134/134
f 135/135/135 136/136/136 125/125/125
f 137/137/137 136/136/136 135/135/135
f 137/137/137 138/138/138 136/136/136
f 139/139/139 140/140/140 141/141/141
f 139/139/139 142/142/142 140/140/140
f 143/143/143 142/142/142 139/139/139
f 143/143/143 144/144/144 142/142/142
f 145/145/145 144/144/144 143/143/143
f 145/145/145 146/146/146 144/144/144
f 147/147/147 146/146/146 145/145/145
f 147/147/147 148/148/148 146/146/146
f 149/149/149 150/150/150 151/151/151
f 149/149/149 152/152/152 150/150/150
f 153/153/153 152/152/152 149/149/149
f 153/153/153 144/144/144 152/152/152
f 154/154/154 144/144/144 153/153/153
f 154/154/154 155/155/155 144/144/144
f 156/156/156 155/155/155 154/154/154
f 156/156/156 157/157/157 155/155/155
f 158/158/158 120/120/120 122/122/122
f 158/158/158 124/124/124 120/120/120
f 159/159/159 124/124/124 158/158/158
f 159/159/159 126/126/126 124/124/124
f 128/128/128 126/126/126 159/159/159
f 123/123/123 160/160/160 121/121/121
f 123/123/123 161/161/161 160/160/160
f 162/162/162 161/161/161 123/123/123
f 162/162/162 163/163/163 161/161/161
f 164/164/164 163/163/163 162/162/162
f 165/165/165 136/136/136 138/138/138
f 165/165/165 125/125/125 136/136/136
f 166/166/166 125/125/125 165/165/165
f 166/166/166 123/123/123 125/125/125
f 162/162/162 123/123/123 166/166/166
f 167/167/167 139/139/139 141/141/141
f 167/167/167 143/143/143 139/139/139
f 168/168/168 143/143/143 167/167/167
f 168/168/168 145/145/145 143/143/143
f 147/147/147 145/145/145 168/168/168
f 142/142/142 169/169/169 140/140/140
f 142/142/142 170/170/170 169/169/169
f 171/171/171 170/170/170 142/142/142
f 171/171/171 172/172/172 170/170/170
f 173/173/173 172/172/172 171/171/171
f 174/174/174 155/155/155 157/157/157
f 174/174/174 144/144/144 155/155/155
f 175/175/175 144/144/144 174/174/174
f 175/175/175 142/142/142 144/144/144
f 171/171/171 142/142/142 175/175/175
f 125/125/125 131/131/131 133/133/133
f 125/125/125 176/176/176 131/131/131
f 127/127/127 176/176/176 125/125/125
f 127/127/127 129/129/129 176/176/176
f 177/177/177 165/165/165 138/138/138
f 177/177/177 166/166/166 165/165/165
f 164/164/164 166/166/166 177/177/177
f 164/164/164 162/162/162 166/166/166
f 144/144/144 150/150/150 152/152/152
f 144/144/144 178/178/178 150/150/150
f 146/146/146 178/178/178 144/144/144
f 146/146/146 148/148/148 178/178/178
f 179/179/179 174/174/174 157/157/157
f 179/179/179 175/175/175 174/174/174
f 173/173/173 175/175/175 179/179/179
f 173/173/173 171/171/171 175/175/175
f 180/180/180 134/134/134 130/130/130
f 180/180/180 135/135/135 134/134/134
f 137/137/137 135/135/135 180/180/180
f 181/181/181 153/153/153 149/149/149
f 181/181/181 154/154/154 153/153/153
f 156/156/156 154/154/154 181/181/181
f 176/176/176 132/132/132 131/131/131
f 176/176/176 129/129/129 132/132/132
f 178/178/178 151/151/151 150/150/150
f 178/178/178 148/148/148 151/151/151

v -1.060547 16.000000 1.060547
v 1.060547 5.000000 -1.060547
v -1.060547 5.000000 1.060547
v 1.060547 16.000000 -1.060547
v 1.060547 16.000000 1.060547
v -1.060547 5.000000 -1.060547
v 1.060547 5.000000 1.060547
v -1.060547 16.000000 -1.060547
v -1.060547 5.000000 -1.060547
v 1.060547 16.000000 1.060547
v 1.060547 5.000000 1.060547
v -1.060547 16.000000 -1.060547
v 1.060547 5.000000 -1.060547
v -1.060547 16.000000 1.060547
v -1.060547 5.000000 1.060547
v 1.060547 16.000000 -1.060547

vt 0.000000 1.000000
vt 1.000000 0.000000
vt 0.000000 0.000000
vt 1.000000 1.000000
vt 0.000000 1.000000
vt 1.000000 0.000000
vt 0.000000 0.000000
vt 1.000000 1.000000
vt 1.000000 0.000000
vt 0.000000 1.000000
vt 0.000000 0.000000
vt 1.000000 1.000000
vt 1.000000 0.000000
vt 0.000000 1.000000
vt 0.000000 0.000000
vt 1.000000 1.000000

vn -0.707107 0.000000 -0.707107
vn -0.707107 0.000000 -0.707107
vn -0.707107 0.000000 -0.707107
vn -0.707107 0.000000 -0.707107
vn -0.707107 0.000000 0.707107
vn -0.707107 0.000000 0.707107
vn -0.707107 0.000000 0.707107
vn -0.707107 0.000000 0.707107
vn 0.707107 0.000000 -0.707107
vn 0.707107 0.000000 -0.707107
vn 0.707107 0.000000 -0.707107
vn 0.707107 0.000000 -0.707107
vn 0.707107 0.000000 0.707107
vn 0.707107 0.000000 0.707107
vn 0.707107 0.000000 0.707107
vn 0.707107 0.000000 0.707107

g polygon3
s 1
usemtl mat1
f 182/182/182 183/183/183 184/184/184
f 182/182/182 185/185/185 183/183/183
f 186/186/186 187/187/187 188/188/188
f 186/186/186 189/189/189 187/187/187
f 190/190/190 191/191/191 192/192/192
f 190/190/190 193/193/193 191/191/191
f 194/194/194 195/195/195 196/196/196
f 194/194/194 197/197/197 195/195/195

