mtllib eff_enem_MA_e064_boomerang_zanzouB_M.mtl

v 0.000000 2.049185 1.647143
v 0.000000 -6.625768 4.557974
v 0.000000 4.960015 -7.027809
v 0.000000 -0.861645 10.322096
v 0.000000 10.724137 -1.263687

vt 0.500000 0.500000
vt 0.000000 0.000000
vt 1.000000 0.000000
vt 0.000000 1.000000
vt 1.000000 1.000000

vn 1.000000 0.000000 0.000000
vn 1.000000 0.000000 0.000000
vn 1.000000 0.000000 0.000000
vn 1.000000 0.000000 0.000000
vn 1.000000 0.000000 0.000000

g polygon0
s 1
usemtl mat1
f 1/1/1 2/2/2 3/3/3
f 1/1/1 4/4/4 2/2/2
f 5/5/5 4/4/4 1/1/1
f 5/5/5 1/1/1 3/3/3

v 0.000000 2.613699 -0.284286
v 0.000000 -1.462151 7.908100
v 0.000000 -1.462151 -8.476672
v 0.000000 6.689549 7.908100
v 0.000000 6.689549 -8.476671

vt 0.500000 0.500000
vt 0.000000 0.000000
vt 1.000000 0.000000
vt 0.000000 1.000000
vt 1.000000 1.000000

vn 1.000000 0.000000 0.000000
vn 1.000000 0.000000 0.000000
vn 1.000000 0.000000 0.000000
vn 1.000000 0.000000 0.000000
vn 1.000000 0.000000 0.000000

g polygon1
s 1
usemtl mat1
f 6/6/6 7/7/7 8/8/8
f 6/6/6 9/9/9 7/7/7
f 10/10/10 9/9/9 6/6/6
f 10/10/10 6/6/6 8/8/8

