mtllib WpnPrimBoomerang.mtl

v -0.219574 -6.662917 0.404187
v -0.000000 -5.519226 -0.911720
v -0.000000 -6.898157 -1.034556
v -0.219577 -5.305092 1.100167
v -0.000000 -5.743236 1.799834
v -0.000000 -7.081871 1.275437
v -0.219577 -4.202589 2.480328
v -0.000000 -4.717544 2.875334
v -0.219574 7.433941 -0.402522
v 0.000000 7.820242 0.271061
v 0.000000 8.498703 -0.509873
v -0.219577 5.911678 0.345028
v -0.000000 7.041489 -1.504385
v -0.000000 5.229527 -0.595566
v -0.219577 4.262638 1.969195
v -0.000000 3.504807 1.307463
v 0.000000 6.284592 0.983932
v -0.430833 -1.847193 5.602747
v -0.363123 -2.502745 4.654486
v -0.000000 -3.357023 5.156656
v -0.495794 -0.475288 6.064272
v -0.000000 -2.270519 6.329359
v 0.000000 1.005779 6.485556
v -0.000000 -0.475288 6.795799
v -0.000000 -0.475267 4.626452
v -0.430832 0.624693 5.724531
v -0.363123 1.560913 4.783749
v -0.282709 2.687090 3.798109
v -0.000000 1.853140 3.219692
v 0.000000 2.185404 5.531864
v -0.000000 -7.737603 0.376604
v -0.000000 -7.684683 -0.535145
v -0.282709 -3.231062 3.696542
v -0.000000 -2.528849 3.144943
v -0.000000 -3.474612 1.960725
v -0.000000 -4.409471 0.415580
v -0.000000 -3.920719 4.079123
v -0.325111 -1.818815 3.933329
v -0.325111 0.776558 3.922544
v 0.000000 3.202812 4.230946
v 0.000000 4.724033 2.503115
v -0.000000 8.110306 -1.386807
v -0.284350 -0.475274 3.348347
v -0.000000 -1.751843 2.598582
v -0.000000 0.942934 2.571139
v -0.000000 -0.445044 2.212577
v 0.170107 -6.898125 -1.034556
v 0.170107 -5.519194 -0.911720
v -0.136354 -6.662885 0.404187
v -0.136350 -5.305059 1.100167
v 0.170107 -7.081838 1.275438
v 0.170107 -5.743203 1.799834
v 0.170107 -4.717511 2.875333
v -0.136350 -4.202556 2.480328
v 0.170107 8.498734 -0.509874
v 0.170107 7.820274 0.271061
v -0.136354 7.433975 -0.402522
v 0.170107 7.041523 -1.504385
v -0.136350 5.911711 0.345028
v 0.170107 5.229561 -0.595566
v 0.170107 3.504839 1.307463
v -0.136350 4.262671 1.969195
v 0.170107 6.284624 0.983932
v 0.170107 -3.356991 5.156656
v -0.279896 -2.502712 4.654486
v -0.347605 -1.847160 5.602747
v 0.170107 -2.270485 6.329359
v -0.412567 -0.475258 6.064272
v 0.170106 -0.475258 6.795799
v 0.170106 1.005810 6.485556
v 0.170106 -0.475235 4.626452
v -0.347605 0.624725 5.724531
v -0.279896 1.560946 4.783749
v 0.170107 1.853173 3.219692
v -0.199482 2.687123 3.798109
v 0.170107 2.185436 5.531864
v 0.170107 -7.684650 -0.535146
v 0.170107 -7.737571 0.376604
v 0.170107 -3.474579 1.960725
v 0.170107 -2.528816 3.144943
v -0.199482 -3.231029 3.696542
v 0.170107 -4.409439 0.415580
v 0.170107 -3.920687 4.079123
v -0.241883 -1.818782 3.933329
v -0.241883 0.776590 3.922544
v 0.170107 3.202845 4.230946
v 0.170107 4.724066 2.503115
v 0.170107 8.110335 -1.386807
v 0.170107 -1.751810 2.598582
v -0.201122 -0.475240 3.348347
v 0.170106 -0.445011 2.212577
v 0.170106 0.942967 2.571139

vt 0.063273 0.219810
vt 0.134753 0.055322
vt 0.048569 0.039967
vt 0.148137 0.306808
vt 0.120752 0.394266
vt 0.037088 0.328717
vt 0.217043 0.479328
vt 0.184858 0.528704
vt 0.944327 0.118971
vt 0.968469 0.203169
vt 1.010875 0.105552
vt 0.849184 0.212415
vt 0.919799 -0.018762
vt 0.806551 0.094841
vt 0.746120 0.415436
vt 0.698755 0.332720
vt 0.872491 0.292278
vt 0.364255 0.869630
vt 0.323283 0.751098
vt 0.269890 0.813869
vt 0.450000 0.927321
vt 0.337798 0.960457
vt 0.542567 0.979981
vt 0.450000 1.018762
vt 0.450000 0.747593
vt 0.518748 0.884853
vt 0.577261 0.767255
vt 0.647648 0.644050
vt 0.595526 0.571748
vt 0.616292 0.860770
vt -0.003895 0.216363
vt -0.000588 0.102394
vt 0.277764 0.631355
vt 0.321652 0.562405
vt 0.262541 0.414378
vt 0.204112 0.221234
vt 0.234659 0.679177
vt 0.366029 0.660953
vt 0.528240 0.659605
vt 0.679881 0.698155
vt 0.774957 0.482176
vt 0.986600 -0.004064
vt 0.450000 0.587830
vt 0.370214 0.494110
vt 0.538638 0.490679
vt 0.451889 0.445859
vt 0.048569 0.039967
vt 0.134753 0.055322
vt 0.063273 0.219810
vt 0.148137 0.306808
vt 0.037088 0.328717
vt 0.120752 0.394266
vt 0.184858 0.528704
vt 0.217043 0.479328
vt 1.010875 0.105552
vt 0.968469 0.203169
vt 0.944327 0.118971
vt 0.919799 -0.018762
vt 0.849184 0.212415
vt 0.806551 0.094841
vt 0.698755 0.332720
vt 0.746120 0.415436
vt 0.872491 0.292278
vt 0.269890 0.813869
vt 0.323283 0.751098
vt 0.364255 0.869630
vt 0.337798 0.960457
vt 0.450000 0.927321
vt 0.450000 1.018762
vt 0.542567 0.979981
vt 0.450000 0.747593
vt 0.518748 0.884853
vt 0.577261 0.767255
vt 0.595526 0.571748
vt 0.647648 0.644050
vt 0.616292 0.860770
vt -0.000588 0.102394
vt -0.003895 0.216363
vt 0.262541 0.414378
vt 0.321652 0.562405
vt 0.277764 0.631355
vt 0.204112 0.221234
vt 0.234659 0.679177
vt 0.366029 0.660953
vt 0.528240 0.659605
vt 0.679881 0.698155
vt 0.774957 0.482176
vt 0.986600 -0.004064
vt 0.370214 0.494110
vt 0.450000 0.587830
vt 0.451889 0.445859
vt 0.538638 0.490679

vn -0.988090 -0.145750 0.049344
vn -0.988744 0.120822 -0.088240
vn -0.993180 -0.103629 -0.053430
vn -0.999483 -0.006913 0.031408
vn -0.999477 -0.020021 0.025385
vn -0.985094 -0.096472 0.142415
vn -0.999477 -0.020021 0.025385
vn -0.983109 -0.153203 0.100131
vn -0.997589 0.069355 -0.002657
vn -0.997589 0.069355 -0.002657
vn -0.991441 0.078106 -0.104617
vn -0.999351 0.018722 0.030789
vn -0.991441 0.078106 -0.104617
vn -0.999351 0.018722 0.030789
vn -0.975180 0.162981 0.149873
vn -0.994644 -0.013534 -0.102471
vn -0.999351 0.018722 0.030789
vn -0.999979 0.000111 0.006534
vn -0.999305 -0.034567 0.013952
vn -0.981279 -0.085078 0.172781
vn -0.999979 0.000111 0.006534
vn -0.977682 -0.005274 0.210025
vn -0.981624 0.071733 0.176832
vn -0.981279 -0.085078 0.172781
vn -0.999051 -0.001728 -0.043511
vn -0.985663 0.119446 0.119171
vn -0.999094 0.032667 0.027278
vn -0.999351 0.018722 0.030789
vn -0.988045 -0.115910 -0.101650
vn -0.978520 0.150165 0.141241
vn -0.997984 -0.062916 -0.008288
vn -0.994199 -0.026312 -0.104289
vn -0.999827 -0.016239 0.009051
vn -0.999827 -0.016239 0.009051
vn -0.984909 0.139778 -0.102058
vn -0.999477 -0.020021 0.025385
vn -0.975008 -0.172910 0.139506
vn -0.999051 -0.001728 -0.043511
vn -0.999669 0.015738 -0.020356
vn -0.978520 0.150165 0.141241
vn -0.999351 0.018722 0.030789
vn -0.990964 -0.034625 -0.129585
vn -0.999979 0.000111 0.006534
vn -0.999051 -0.001728 -0.043511
vn -0.999669 0.015738 -0.020356
vn -0.990549 -0.002811 -0.137128
vn 0.997984 0.062916 0.008288
vn 0.994197 -0.052713 0.093771
vn 0.985094 0.096472 -0.142415
vn 0.988744 -0.120822 0.088240
vn 0.997984 0.062916 0.008288
vn 0.999483 0.006913 -0.031408
vn 0.999827 0.016239 -0.009051
vn 0.975008 0.172910 -0.139506
vn 0.997589 -0.069355 0.002657
vn 0.999351 -0.018722 -0.030789
vn 0.991441 -0.078106 0.104617
vn 0.990964 0.034625 0.129585
vn 0.979398 -0.111301 -0.168497
vn 0.990140 0.090143 0.107228
vn 0.999351 -0.018722 -0.030789
vn 0.999351 -0.018722 -0.030789
vn 0.975180 -0.162981 -0.149873
vn 0.997906 0.043754 -0.047634
vn 0.999827 0.016239 -0.009051
vn 0.999305 0.034567 -0.013952
vn 0.995598 0.002194 -0.093705
vn 0.995598 0.002194 -0.093705
vn 0.977682 0.005274 -0.210025
vn 0.985663 -0.119446 -0.119171
vn 0.999979 -0.000111 -0.006534
vn 0.998030 -0.036262 -0.051188
vn 0.978520 -0.150165 -0.141241
vn 0.994644 0.013534 0.102471
vn 0.988045 0.115910 0.101650
vn 0.999094 -0.032667 -0.027277
vn 0.993180 0.103629 0.053430
vn 0.988090 0.145750 -0.049344
vn 0.988744 -0.120822 0.088240
vn 0.999305 0.034567 -0.013952
vn 0.975008 0.172910 -0.139506
vn 0.984909 -0.139778 0.102058
vn 0.983109 0.153203 -0.100131
vn 0.999314 0.022654 0.029295
vn 0.999051 0.001728 0.043511
vn 0.975180 -0.162981 -0.149873
vn 0.999351 -0.018722 -0.030789
vn 0.997589 -0.069355 0.002657
vn 0.990549 0.002811 0.137128
vn 0.999669 -0.015738 0.020356
vn 0.990256 0.059213 0.126043
vn 0.994644 0.013534 0.102471

g polygon0
s 1
usemtl mat1
f 1/1/1 2/2/2 3/3/3
f 4/4/4 2/2/2 1/1/1
f 5/5/5 4/4/4 6/6/6
f 7/7/7 5/5/5 8/8/8
f 4/4/4 5/5/5 7/7/7
f 9/9/9 10/10/10 11/11/11
f 12/12/12 9/9/9 13/13/13
f 14/14/14 12/12/12 13/13/13
f 15/15/15 14/14/14 16/16/16
f 15/15/15 17/17/17 12/12/12
f 15/15/15 12/12/12 14/14/14
f 18/18/18 19/19/19 20/20/20
f 21/21/21 18/18/18 22/22/22
f 23/23/23 21/21/21 24/24/24
f 25/25/25 18/18/18 21/21/21
f 23/23/23 26/26/26 21/21/21
f 27/27/27 25/25/25 26/26/26
f 28/28/28 29/29/29 27/27/27
f 30/30/30 27/27/27 26/26/26
f 4/4/4 1/1/1 6/6/6
f 31/31/31 1/1/1 32/32/32
f 33/33/33 34/34/34 35/35/35
f 7/7/7 36/36/36 4/4/4
f 19/19/19 37/37/37 20/20/20
f 38/38/38 34/34/34 19/19/19
f 18/18/18 20/20/20 22/22/22
f 38/38/38 19/19/19 25/25/25
f 21/21/21 22/22/22 24/24/24
f 19/19/19 18/18/18 25/25/25
f 26/26/26 25/25/25 21/21/21
f 39/39/39 25/25/25 27/27/27
f 27/27/27 29/29/29 39/39/39
f 23/23/23 30/30/30 26/26/26
f 27/27/27 30/30/30 40/40/40
f 27/27/27 40/40/40 28/28/28
f 12/12/12 17/17/17 10/10/10
f 40/40/40 41/41/41 28/28/28
f 9/9/9 11/11/11 42/42/42
f 12/12/12 10/10/10 9/9/9
f 43/43/43 44/44/44 38/38/38
f 45/45/45 46/46/46 43/43/43
f 39/39/39 45/45/45 43/43/43
f 29/29/29 45/45/45 39/39/39
f 38/38/38 44/44/44 34/34/34
f 46/46/46 44/44/44 43/43/43
f 25/25/25 43/43/43 38/38/38
f 39/39/39 43/43/43 25/25/25
f 4/4/4 36/36/36 2/2/2
f 33/33/33 35/35/35 7/7/7
f 28/28/28 15/15/15 16/16/16
f 41/41/41 17/17/17 15/15/15
f 28/28/28 41/41/41 15/15/15
f 28/28/28 16/16/16 29/29/29
f 19/19/19 34/34/34 33/33/33
f 19/19/19 33/33/33 37/37/37
f 9/9/9 42/42/42 13/13/13
f 1/1/1 3/3/3 32/32/32
f 6/6/6 1/1/1 31/31/31
f 35/35/35 36/36/36 7/7/7
f 7/7/7 8/8/8 33/33/33
f 33/33/33 8/8/8 37/37/37
f 47/47/47 48/48/48 49/49/49
f 49/49/49 48/48/48 50/50/50
f 51/51/51 50/50/50 52/52/52
f 53/53/53 52/52/52 54/54/54
f 54/54/54 52/52/52 50/50/50
f 55/55/55 56/56/56 57/57/57
f 58/58/58 57/57/57 59/59/59
f 58/58/58 59/59/59 60/60/60
f 61/61/61 60/60/60 62/62/62
f 59/59/59 63/63/63 62/62/62
f 60/60/60 59/59/59 62/62/62
f 64/64/64 65/65/65 66/66/66
f 67/67/67 66/66/66 68/68/68
f 69/69/69 68/68/68 70/70/70
f 68/68/68 66/66/66 71/71/71
f 68/68/68 72/72/72 70/70/70
f 72/72/72 71/71/71 73/73/73
f 73/73/73 74/74/74 75/75/75
f 72/72/72 73/73/73 76/76/76
f 51/51/51 49/49/49 50/50/50
f 77/77/77 49/49/49 78/78/78
f 79/79/79 80/80/80 81/81/81
f 50/50/50 82/82/82 54/54/54
f 64/64/64 83/83/83 65/65/65
f 65/65/65 80/80/80 84/84/84
f 67/67/67 64/64/64 66/66/66
f 71/71/71 65/65/65 84/84/84
f 69/69/69 67/67/67 68/68/68
f 71/71/71 66/66/66 65/65/65
f 68/68/68 71/71/71 72/72/72
f 73/73/73 71/71/71 85/85/85
f 85/85/85 74/74/74 73/73/73
f 72/72/72 76/76/76 70/70/70
f 86/86/86 76/76/76 73/73/73
f 75/75/75 86/86/86 73/73/73
f 56/56/56 63/63/63 59/59/59
f 75/75/75 87/87/87 86/86/86
f 88/88/88 55/55/55 57/57/57
f 57/57/57 56/56/56 59/59/59
f 84/84/84 89/89/89 90/90/90
f 90/90/90 91/91/91 92/92/92
f 90/90/90 92/92/92 85/85/85
f 85/85/85 92/92/92 74/74/74
f 80/80/80 89/89/89 84/84/84
f 90/90/90 89/89/89 91/91/91
f 84/84/84 90/90/90 71/71/71
f 71/71/71 90/90/90 85/85/85
f 48/48/48 82/82/82 50/50/50
f 54/54/54 79/79/79 81/81/81
f 61/61/61 62/62/62 75/75/75
f 62/62/62 63/63/63 87/87/87
f 62/62/62 87/87/87 75/75/75
f 74/74/74 61/61/61 75/75/75
f 81/81/81 80/80/80 65/65/65
f 83/83/83 81/81/81 65/65/65
f 58/58/58 88/88/88 57/57/57
f 77/77/77 47/47/47 49/49/49
f 78/78/78 49/49/49 51/51/51
f 54/54/54 82/82/82 79/79/79
f 81/81/81 53/53/53 54/54/54
f 83/83/83 53/53/53 81/81/81

